<svg width="374" height="84" viewBox="0 0 374 84" fill="none" xmlns="http://www.w3.org/2000/svg">
<g clip-path="url(#clip0_2003_107)">
<path d="M2.33008 2.02136H17.5124L30.3053 50.6221H31.7022L29.6436 24.7557L29.3128 2.02136H43.7231V82.826H28.5408L15.7111 34.2253H14.3142L16.3728 60.0916L16.7037 82.826H2.33008V2.02136Z" fill="#1E1E1E"/>
<path d="M77.3227 44.9477H64.8975V72.4352H78.4991V82.826H50.1562V2.02136H78.4991V12.4121H64.8975V34.5569H77.3227V44.9477Z" fill="#1E1E1E"/>
<path d="M97.9092 2.02136V82.826H83.168V2.02136H97.9092Z" fill="#1E1E1E"/>
<path d="M144.559 31.425L129.12 31.5355V19.413C129.12 14.6966 127.392 11.233 123.606 11.233C119.819 11.233 118.091 14.6966 118.091 19.413V62.2288C118.091 68.1242 120.04 71.5878 123.973 71.5878C127.907 71.5878 129.855 68.1242 129.855 62.2288V50.5852H124.083V40.1945H144.596V82.7892H135.626L133.568 75.7515H132.171C130.333 78.4044 127.465 83.9314 119.856 83.9314C112.246 83.9314 102.688 73.7617 102.688 44.6898V40.0839C102.688 11.012 111.217 0.842285 123.642 0.842285C136.068 0.842285 144.596 10.9014 144.596 31.425H144.559Z" fill="#1E1E1E"/>
<path d="M175.989 33.4148V2.02148H190.731V82.8261H175.989V43.8055H165.182V82.8261H150.44V2.02148H165.182V33.4148H175.989Z" fill="#1E1E1E"/>
<path d="M214.81 2.02148C228.963 2.02148 236.903 9.86981 236.903 22.5819C236.903 35.294 231.83 38.2786 224.699 39.5313V40.9315C232.529 42.1843 238.043 50.2906 238.043 59.5022V61.0129C238.043 75.0883 228.963 82.8261 216.501 82.8261H196.797V2.02148H214.773H214.81ZM211.575 35.2571H215.03C219.736 35.2571 221.464 31.7936 221.464 27.0772V20.629C221.464 15.9127 219.736 12.4491 215.03 12.4491H211.575V35.294V35.2571ZM211.575 72.3985H216.17C220.875 72.3985 222.603 68.9349 222.603 64.2186V53.8278C222.603 49.1115 220.875 45.6479 216.17 45.6479H211.575V72.4354V72.3985Z" fill="#1E1E1E"/>
<path d="M241.388 40.0839C241.388 13.7754 248.189 0.842285 262.342 0.842285C276.495 0.842285 283.295 13.7754 283.295 40.0839V44.6898C283.295 70.9982 276.495 83.9314 262.342 83.9314C248.189 83.9314 241.388 70.9982 241.388 44.6898V40.0839ZM256.827 65.3607C256.827 70.0771 258.555 73.5407 262.342 73.5407C266.128 73.5407 267.856 70.0771 267.856 65.3607V19.4498C267.856 14.7335 266.128 11.2699 262.342 11.2699C258.555 11.2699 256.827 14.7335 256.827 19.4498V65.3976V65.3607Z" fill="#1E1E1E"/>
<path d="M313.256 2.02148H327.997V54.3068C327.997 75.0883 320.498 83.9684 308.073 83.9684C295.648 83.9684 288.038 75.0883 288.038 54.3068V2.02148H302.779V65.3977C302.779 70.114 304.287 73.5776 308.073 73.5776C311.859 73.5776 313.256 70.114 313.256 65.3977V2.02148Z" fill="#1E1E1E"/>
<path d="M372.662 82.7893L358.031 82.8998L355.495 53.2383C355.164 49.6642 353.436 47.4534 349.87 47.4534H348.032V82.7893H333.291V2.02148H351.819C364.244 2.02148 372.772 9.64873 372.772 23.5031C372.772 37.3574 366.192 41.042 359.98 41.6316V43.0318C364.354 43.5108 369.207 45.7953 370.126 55.8544L372.662 82.863V82.7893ZM348.032 37.0995H350.9C355.605 37.0995 357.333 33.6359 357.333 28.9195V20.5922C357.333 15.8758 355.605 12.4122 350.9 12.4122H348.032V37.0995Z" fill="#1E1E1E"/>
</g>
<defs>
<clipPath id="clip0_2003_107">
<rect width="374" height="84" fill="white"/>
</clipPath>
</defs>
</svg>
