<svg width="477" height="120" viewBox="0 0 477 120" fill="none" xmlns="http://www.w3.org/2000/svg">
<g clip-path="url(#clip0_58_22)">
<path d="M53.11 1.59C48.97 1.07 44.8 0.689999 40.62 0.509999V3.01C45.23 4.17 49.58 6.59 53.72 10.2C59.97 15.67 65.14 22.39 69.27 30.32V4.7C65.05 3.49 59.66 2.46 53.12 1.6L53.11 1.59ZM69.35 72.97C66.94 68.96 63.66 65.47 59.49 62.46C55.31 59.44 50.57 56.43 45.36 53.41L35.97 47.72C25.59 41.69 18.61 36.26 15.03 31.48C12.36 28.25 11.02 24.54 11.02 20.41C11.02 14.85 13.13 10.37 17.4 7.01C21.36 3.91 26.32 2.23 32.3 2.06V0.389999C23.3 0.559999 15.93 3.06 10.12 7.8C4.01 12.75 0.99 19.38 0.99 27.61C0.99 33.08 2.11 37.6 4.35 41.09C6.55 44.62 9.73 47.81 13.78 50.74C17.87 53.63 22.78 56.68 28.6 59.92L31.62 61.77C37.74 65.13 42.91 68.19 47 70.99C51.14 73.79 54.54 77.02 57.17 80.77C59.75 84.52 61.09 89.17 61.09 94.73C61.09 101.88 58.85 107.61 54.37 111.92C50.88 115.32 46.27 117.35 40.63 118.04V119.85C50.24 119.12 57.82 116.23 63.33 111.06C69.75 105.12 72.98 97.53 72.98 88.4C72.98 82.15 71.77 77.03 69.36 72.98L69.35 72.97ZM0 90.07V115.66C4.22 116.78 9.65 117.77 16.28 118.68C21.75 119.41 27.05 119.84 32.3 119.97V118.07C26.53 117.34 20.97 114.67 15.72 110.06C9.34 104.55 4.09 97.87 0 90.07Z" fill="white"/>
<path d="M199.92 27.44C194.84 18.52 187.9 11.72 179.16 7.02C170.42 2.37 160.46 0 149.31 0C145.39 0 141.64 0.3 138.02 0.9L138.45 2.84C141.03 2.41 143.49 2.19 145.95 2.19C157.19 2.53 166.71 6.97 174.38 15.59C182.09 24.16 187.73 35.15 191.31 48.54C193.55 56.6 194.63 64.39 194.63 71.97C194.63 82.48 192.22 91.66 187.35 99.58C182.53 107.51 174.86 112.98 164.35 115.99C163.88 116.12 163.36 116.25 162.89 116.33L163.32 118.35C169.01 117.23 174.26 115.42 179.17 112.88C187.91 108.36 194.85 101.68 199.93 92.81C205.01 83.94 207.55 72.95 207.55 59.9C207.55 46.85 205.01 36.38 199.93 27.42L199.92 27.44ZM153.14 117.51C145.56 117.51 138.75 115.49 132.72 111.39C126.69 107.34 121.56 101.78 117.3 94.81C113.08 87.87 109.76 79.95 107.44 71.16C105.2 63.02 104.08 55.18 104.08 47.73C104.08 37.22 106.54 28 111.36 20.07C115.58 13.22 121.91 8.18 130.4 5.04L129.88 2.76C126.26 3.88 122.86 5.3 119.58 7.02C110.79 11.72 103.9 18.52 98.82 27.44C93.74 36.4 91.2 47.21 91.2 59.92C91.2 72.63 93.74 83.96 98.82 92.83C103.9 101.7 110.8 108.38 119.58 112.9C128.32 117.42 138.23 119.71 149.3 119.71C151.24 119.71 153.18 119.62 155.03 119.49L154.6 117.47C154.08 117.51 153.61 117.51 153.14 117.51Z" fill="white"/>
<path d="M397.47 118.03H370.07C372.61 117.25 375.02 115.7 377.26 113.42C379.46 111.14 380.92 108.68 381.61 106.14V21.11L385.75 26.88V106.14C386.53 108.68 387.99 111.14 390.19 113.42C392.34 115.7 394.76 117.25 397.47 118.03Z" fill="white"/>
<path d="M476.35 1.50999C473.77 2.28999 471.4 3.83999 469.16 6.11999C466.92 8.39999 465.46 10.82 464.81 13.4V92.75L460.67 86.98V13.4C459.89 10.82 458.39 8.39999 456.23 6.11999C454.03 3.83999 451.62 2.28999 448.95 1.50999H476.35Z" fill="white"/>
<path d="M463.12 101.28L391.98 1.69H371.73C373.74 2.25 375.6 3.33 377.33 4.95C379.06 6.57 380.49 8.38 381.6 10.39L383.27 12.9L458.42 118.01H464.78V103.62L463.11 101.28H463.12Z" fill="white"/>
<path d="M245.86 11.73C246.64 9.16 248.12 7.02 250.3 5.29C252.48 3.56 254.85 2.36 257.41 1.69H220.92C223.49 2.36 225.88 3.56 228.12 5.29C230.35 7.02 231.8 9.17 232.47 11.73V107.98C231.8 110.55 230.35 112.7 228.12 114.42C225.89 116.15 223.49 117.35 220.92 118.02H245.86V11.73Z" fill="white"/>
<path d="M302.92 94.73L299.09 118.03H252.05V116.35H260.28C267.39 116.35 275.01 114.07 283.02 109.46C291.08 104.89 297.71 99.98 302.92 94.73Z" fill="white"/>
<path d="M355.16 118.02H318.67C321.23 117.35 323.63 116.15 325.87 114.42C328.1 112.69 329.55 110.55 330.22 107.98V11.73C329.55 9.16999 328.1 7.01999 325.87 5.27999C323.63 3.55999 321.24 2.34999 318.67 1.67999H355.16C352.59 2.34999 350.22 3.54999 348.04 5.27999C345.87 7.00999 344.38 9.15999 343.61 11.73V107.98C344.39 110.55 345.87 112.69 348.04 114.42C350.22 116.15 352.59 117.35 355.16 118.02Z" fill="white"/>
</g>
<defs>
<clipPath id="clip0_58_22">
<rect width="476.35" height="119.97" fill="white"/>
</clipPath>
</defs>
</svg>
