<?xml version="1.0" encoding="UTF-8"?>
<svg version="1.1" xmlns="http://www.w3.org/2000/svg" width="32" height="32">
    <path d="M0 0 C10.56 0 21.12 0 32 0 C32 10.56 32 21.12 32 32 C21.44 32 10.88 32 0 32 C0 21.44 0 10.88 0 0 Z "
          fill="#27233A" transform="translate(0,0)"/>
    <path d="M0 0 C0.66 0 1.32 0 2 0 C3.23681641 1.72827148 3.23681641 1.72827148 4.6015625 4.12109375 C5.09140625 4.97380859 5.58125 5.82652344 6.0859375 6.70507812 C6.59382813 7.60677734 7.10171875 8.50847656 7.625 9.4375 C8.140625 10.33533203 8.65625 11.23316406 9.1875 12.15820312 C13 18.8401641 13 18.8401641 13 20 C5.08 20 -2.84 20 -11 20 C-7.36233224 13.31684295 -3.70779858 6.64450631 0 0 Z "
          fill="#BDBBCA" transform="translate(15,5)"/>
    <path d="M0 0 C0.66 0 1.32 0 2 0 C3.23681641 1.72827148 3.23681641 1.72827148 4.6015625 4.12109375 C5.09140625 4.97380859 5.58125 5.82652344 6.0859375 6.70507812 C6.59382813 7.60677734 7.10171875 8.50847656 7.625 9.4375 C8.140625 10.33533203 8.65625 11.23316406 9.1875 12.15820312 C13 18.8401641 13 18.8401641 13 20 C5.08 20 -2.84 20 -11 20 C-10.34 18.68 -9.68 17.36 -9 16 C-8.34 16.66 -7.68 17.32 -7 18 C-3.64255888 18.24377883 -3.64255888 18.24377883 0.125 18.125 C1.40632813 18.10695313 2.68765625 18.08890625 4.0078125 18.0703125 C4.99523438 18.04710938 5.98265625 18.02390625 7 18 C6.01 17.01 5.02 16.02 4 15 C5.32 15.33 6.64 15.66 8 16 C7.6390625 15.30132812 7.278125 14.60265625 6.90625 13.8828125 C6.4421875 12.97273438 5.978125 12.06265625 5.5 11.125 C5.0359375 10.22007813 4.571875 9.31515625 4.09375 8.3828125 C3 6 3 6 3 4 C1.68 4 0.36 4 -1 4 C-0.67 2.68 -0.34 1.36 0 0 Z "
          fill="#C9C7D3" transform="translate(15,5)"/>
    <path d="M0 0 C0.99 0.99 1.98 1.98 3 3 C-1.62 3 -6.24 3 -11 3 C-6.86855049 -1.13144951 -5.60412474 -1.37243871 0 0 Z "
          fill="#28243C" transform="translate(20,21)"/>
    <path d="M0 0 C0.66 0.66 1.32 1.32 2 2 C4.70922801 2.19852102 7.29303179 2.27839477 10 2.25 C10.73734375 2.25773437 11.4746875 2.26546875 12.234375 2.2734375 C16.58421903 2.41008865 16.58421903 2.41008865 20 0 C20.66 1.32 21.32 2.64 22 4 C14.08 4 6.16 4 -2 4 C-1.34 2.68 -0.68 1.36 0 0 Z "
          fill="#F2F2F4" transform="translate(6,21)"/>
    <path d="M0 0 C3.29078593 2.79716804 5.06305458 6.19528578 7 10 C6.67 10.66 6.34 11.32 6 12 C3 10.5 3 10.5 0 8 C-0.55411674 5.15336105 -0.29302268 2.93022681 0 0 Z "
          fill="#2F2B43" transform="translate(17,10)"/>
    <path d="M0 0 C0.33 0 0.66 0 1 0 C1 2.64 1 5.28 1 8 C-1.31 9.32 -3.62 10.64 -6 12 C-4.43358249 7.69235185 -2.31663844 3.93828536 0 0 Z "
          fill="#302C43" transform="translate(14,10)"/>
    <path d="M0 0 C0.66 0 1.32 0 2 0 C2.12375 0.61875 2.2475 1.2375 2.375 1.875 C2.87197356 4.19120832 2.87197356 4.19120832 5 6 C2.53721199 7.231394 0.7204945 7.07159196 -2 7 C-2.33 6.34 -2.66 5.68 -3 5 C-2.34 4.67 -1.68 4.34 -1 4 C-0.34786708 1.97536745 -0.34786708 1.97536745 0 0 Z "
          fill="#7976A3" transform="translate(15,14)"/>
    <path d="M0 0 C0.66 0 1.32 0 2 0 C3.6875 2.375 3.6875 2.375 5 5 C4.67 5.66 4.34 6.32 4 7 C3.67 6.01 3.34 5.02 3 4 C1.68 4 0.36 4 -1 4 C-0.67 2.68 -0.34 1.36 0 0 Z "
          fill="#E2E2E5" transform="translate(15,5)"/>
</svg>
