<svg width="600" height="79" viewBox="0 0 600 79" fill="none" xmlns="http://www.w3.org/2000/svg">
<path d="M0 12L600 12.0001" stroke="#F0EDE8"/>
<path d="M300 79L300 20" stroke="#F0EDE8" stroke-width="1.03573"/>
<g clip-path="url(#clip0_74_53)">
<path fill-rule="evenodd" clip-rule="evenodd" d="M312 11.9991L300 23.9982L288 11.9991L300 0L312 11.9991ZM311.446 11.9991L300 0.556285L288.554 12.0009L300 23.4473L311.446 12.0009V11.9991Z" fill="#F0EDE8"/>
<path fill-rule="evenodd" clip-rule="evenodd" d="M305.187 12.0063L299.986 17.2068L294.799 12.019L300 6.81857L305.187 12.0063ZM304.634 12.0063L300 7.37305L295.353 12.0208L299.987 16.6541L304.634 12.0063Z" fill="#F0EDE8"/>
<path d="M311.723 11.9991L310.937 12.7855L304.942 12.01C304.942 12.01 304.937 12.0027 304.942 12.0027L310.946 11.2236L311.721 11.9991H311.723Z" fill="#F0EDE8"/>
<path fill-rule="evenodd" clip-rule="evenodd" d="M311.016 11.017L311.998 11.9991L311.005 12.9921L304.915 12.2039C304.683 12.1731 304.683 11.8378 304.915 11.8088L311.015 11.017H311.016ZM306.435 12.0064L310.866 12.5808L311.447 12.0009L310.879 11.4319L306.438 12.0082L306.435 12.0064Z" fill="#F0EDE8"/>
<path d="M300.002 0.279053L300.788 1.06546L300.013 7.05957C300.013 7.05957 300.005 7.06501 300.005 7.05957L299.226 1.0564L300.002 0.280865V0.279053Z" fill="#F0EDE8"/>
<path d="M288.279 12.0009L289.065 11.2145L295.06 11.99C295.06 11.99 295.065 11.9973 295.06 11.9973L289.056 12.7764L288.281 12.0009H288.279Z" fill="#F0EDE8"/>
<path fill-rule="evenodd" clip-rule="evenodd" d="M288.995 11.0079L295.085 11.7962C295.317 11.827 295.317 12.1622 295.085 12.1912L288.986 12.983L288 12.0009L288.995 11.0079ZM289.134 11.4211L288.554 12.0009L289.123 12.5699L293.563 11.9937L289.132 11.4193L289.134 11.4211Z" fill="#F0EDE8"/>
<path d="M300.002 23.7228L299.214 22.9364L299.991 16.9423C299.991 16.9423 299.998 16.9368 299.998 16.9423L300.777 22.9454L300.002 23.721V23.7228Z" fill="#F0EDE8"/>
<path fill-rule="evenodd" clip-rule="evenodd" d="M299.995 18.4353L299.42 22.8657L300 23.4455L300.569 22.8766L299.993 18.4353H299.995ZM299.797 16.9151C299.828 16.6831 300.163 16.6831 300.192 16.9151L300.984 23.0161L300.002 23.9982L299.007 23.0052L299.795 16.9151H299.797Z" fill="#F0EDE8"/>
<g clip-path="url(#clip1_74_53)">
<path d="M312 11.9964L310.821 10.8173H310.819L310.815 10.8183L301.181 1.18437L301.182 1.17908L300.003 0L298.824 1.17908L295.609 4.39407L289.179 10.824L288 12.0031L288.589 12.5924L289.179 13.1817H289.182H289.184L298.818 22.8156L298.817 22.8209L299.996 24L301.175 22.8209L310.82 13.176L311.207 12.7898L311.593 12.4037L311.795 12.202L311.997 12.0002L312 11.9974L312 11.9964ZM298.889 1.59404L299.702 6.80555L297.254 9.25305L294.807 11.7005L289.595 10.8879L298.89 1.59356H298.889V1.59404ZM301.117 1.59981L310.401 10.8831L305.193 11.6929L300.308 6.80843L301.118 1.60029H301.117V1.59981ZM289.601 13.1164L292.69 12.6361L294.819 12.3052L299.695 17.1805L298.884 22.3997L289.6 13.1164H289.601ZM301.112 22.4055L300.57 18.9311L300.299 17.194L305.195 12.2985L310.406 13.1111L307.308 16.2094L301.112 22.4055Z" fill="#F0EDE8"/>
</g>
</g>
<defs>
<clipPath id="clip0_74_53">
<rect width="24" height="24" fill="white" transform="translate(288)"/>
</clipPath>
<clipPath id="clip1_74_53">
<rect width="24" height="23.9995" fill="white" transform="translate(288)"/>
</clipPath>
</defs>
</svg>
