<svg width="518" height="311" viewBox="0 0 518 311" fill="none" xmlns="http://www.w3.org/2000/svg">
<path d="M472.551 178.538H486.586C485.697 179.695 484.099 182.717 484.099 188.486L483.831 237.524H500.181C507.826 236.902 514.226 232.015 517.154 225.176L513.958 240.719H472.551C473.259 239.657 474.952 236.54 474.857 230.59V188.658C474.943 182.795 473.259 179.686 472.551 178.529V178.538Z" fill="#F0EDE8"/>
<path d="M416.822 178.538H430.858C429.968 179.695 428.37 182.717 428.37 188.486L428.103 237.524H444.453C452.097 236.902 458.498 232.015 461.426 225.176L458.23 240.719H416.822C417.531 239.657 419.223 236.54 419.128 230.59V188.658C419.215 182.795 417.531 179.686 416.822 178.529V178.538Z" fill="#F0EDE8"/>
<path d="M359.617 178.538H400.584V190.973C400.584 192.751 400.498 182.001 391.523 181.733H371.26V206.611H385.296C390.357 206.343 394.356 202.172 394.356 197.199V219.054C394.356 214.08 390.357 209.901 385.296 209.728H371.26L370.906 237.619H385.037C393.389 237.619 400.584 232.559 403.607 225.185L400.584 240.728H359.617C360.325 239.666 362.018 236.549 361.923 230.599V188.667C362.009 182.804 360.325 179.695 359.617 178.538Z" fill="#F0EDE8"/>
<path d="M296.219 222.335L306.437 190.713C307.862 186.447 309.995 180.766 314.435 178.546C313.01 181.215 315.411 187.164 316.655 190.454L328.566 222.344L339.233 189.383C340.477 185.385 342.429 181.387 338.611 178.546H348.561C346.428 179.79 345.365 182.544 344.121 185.739L326.441 240.814H324.929L308.492 196.127L294.189 240.814H292.591L272.95 187.156C271.524 183.961 270.281 180.135 267.353 178.624H283.971C281.302 182.441 282.373 185.195 283.884 188.926L296.236 222.326L296.219 222.335Z" fill="#F0EDE8"/>
<path d="M242.209 181.733V230.858C242.209 236.635 243.893 239.649 244.61 240.719H230.566C231.369 239.657 233.054 236.54 232.967 230.59V181.733C230.125 181.733 227.016 181.552 223.993 181.733C215.554 182.355 215.554 192.751 215.554 190.973V178.538H259.717V190.973C259.717 192.751 259.631 182.441 251.183 181.733C248.247 181.552 245.137 181.733 242.209 181.733Z" fill="#F0EDE8"/>
<path d="M153.823 178.538H167.858C167.055 179.695 165.371 182.717 165.371 188.486V208.122H191.758V188.667C191.758 182.804 190.074 179.695 189.357 178.538H203.401C202.598 179.695 201 182.717 200.914 188.486V230.858C201 236.635 202.598 239.648 203.401 240.719H189.357C190.065 239.657 191.758 236.54 191.758 230.59V211.222H165.371V230.858C165.371 236.635 167.055 239.648 167.858 240.719H153.823C154.531 239.657 156.224 236.54 156.224 230.59V188.658C156.224 182.795 154.54 179.686 153.823 178.529V178.538Z" fill="#F0EDE8"/>
<path d="M130.502 188.935C126.417 184.133 120.457 181.388 114.601 181.647C88.2135 183.158 87.4102 237.17 115.309 237.524C121.26 237.611 125.881 235.84 129.345 232.637V219.753C129.345 213.804 127.66 210.868 126.857 209.624H140.988C140.098 210.781 138.5 213.804 138.5 219.572V230.944C133.257 237.783 122.418 240.806 114.333 240.806C112.027 240.806 108.65 240.451 106.602 239.916C93.4478 236.721 83.4111 224.459 83.4111 209.624C83.4111 192.475 96.92 178.529 113.271 178.529C119.939 178.529 130.157 179.332 136.462 182.527V199.582C135.037 195.938 133.171 192.121 130.511 188.917L130.502 188.935Z" fill="#F0EDE8"/>
<path d="M55.6418 178.538H69.6776C68.8743 179.695 67.19 182.717 67.19 188.486V230.858C67.19 236.635 68.8743 239.648 69.6776 240.719H55.6418C56.3501 239.657 58.043 236.54 58.043 230.59V188.658C58.043 182.795 56.3587 179.686 55.6418 178.529V178.538Z" fill="#F0EDE8"/>
<path d="M0 178.538H14.0357C13.1461 179.695 11.5482 182.717 11.5482 188.486L11.2804 237.524H27.6309C35.275 236.902 41.6667 232.015 44.6034 225.176L41.4076 240.719H0C0.708264 239.657 2.40119 236.54 2.30618 230.59V188.658C2.39255 182.795 0.708264 179.686 0 178.529V178.538Z" fill="#F0EDE8"/>
<path d="M411.493 264.267C409.005 258.05 403.944 251.919 393.985 251.919C383.059 251.919 379.768 259.915 385.805 265.865C392.119 271.909 406.423 277.859 413.177 285.855C416.287 289.499 417.885 293.67 416.468 298.825C414.689 305.491 407.408 310.905 394.875 310.905C386.876 310.905 377.462 308.064 373.281 304.42L377.989 292.253C380.036 298.03 383.318 307.71 394.607 307.71C404.471 307.71 408.738 301.933 407.58 296.338C406.336 290.915 400.031 286.563 393.277 282.392C387.593 278.835 381.634 275.64 377.997 271.469C372.4 264.984 373.912 255.831 382.532 251.038C385.374 249.527 389.286 248.733 393.907 248.733C397.017 248.733 404.125 249.89 407.321 249.708C409.005 249.622 410.258 249.441 411.502 248.733V264.276L411.493 264.267Z" fill="#F0EDE8"/>
<path d="M316.629 248.715H357.596V261.15C357.596 262.929 357.509 252.178 348.527 251.91H328.263V276.788H342.299C347.361 276.52 351.36 272.35 351.36 267.376V289.231C351.36 284.257 347.361 280.078 342.299 279.905H328.263L327.909 307.797H342.04C350.392 307.797 357.587 302.736 360.61 295.362L357.587 310.905H316.62C317.328 309.843 319.021 306.726 318.926 300.776V258.844C319.013 252.981 317.328 249.872 316.62 248.715H316.629Z" fill="#F0EDE8"/>
<path d="M286.424 268.265L269.184 304.42C268.208 306.639 266.428 308.505 264.295 309.48C265.72 306.907 263.233 300.949 261.989 297.668L246.968 267.289L242.883 302.65C242.347 306.734 242.529 308.867 245.638 311H235.066C237.821 309.316 238.979 306.562 239.152 303.539L245.82 248.724H247.245L270.082 294.74L291.675 248.724H293.187L298.611 298.92C299.147 302.831 300.831 308.962 304.657 310.914H286.977C289.818 307.097 290.173 305.232 289.818 300.612L286.441 268.274L286.424 268.265Z" fill="#F0EDE8"/>
<path d="M163.583 279.81C163.583 262.661 177.533 248.715 194.591 248.715C211.65 248.715 225.781 262.661 225.781 279.81C225.781 296.96 211.832 310.992 194.591 310.992C177.351 310.992 163.583 297.046 163.583 279.81ZM194.591 251.824C183.302 251.824 174.069 264.353 174.069 279.81C174.069 295.267 183.311 307.883 194.591 307.883C205.872 307.883 215.209 295.353 215.209 279.81C215.209 264.267 205.967 251.824 194.591 251.824Z" fill="#F0EDE8"/>
<path d="M100.418 248.715H114.454C113.65 249.873 111.966 252.895 111.966 258.663V278.299H138.353V258.844C138.353 252.981 136.669 249.873 135.952 248.715H149.988C149.185 249.873 147.587 252.895 147.5 258.663V301.035C147.587 306.812 149.185 309.826 149.988 310.897H135.952C136.66 309.835 138.353 306.717 138.353 300.768V281.399H111.966V301.035C111.966 306.812 113.65 309.826 114.454 310.897H100.418C101.126 309.835 102.819 306.717 102.819 300.768V258.836C102.819 252.973 101.135 249.864 100.418 248.707V248.715Z" fill="#F0EDE8"/>
<path fill-rule="evenodd" clip-rule="evenodd" d="M324.808 66.2225L258.568 132.445L192.328 66.2225L258.568 0L324.808 66.2225ZM321.751 66.2225L258.568 3.06545L195.386 66.2311L258.568 129.397L321.751 66.2311V66.2225Z" fill="#F0EDE8"/>
<path fill-rule="evenodd" clip-rule="evenodd" d="M287.201 66.2569L258.491 94.9599L229.858 66.3346L258.568 37.6316L287.201 66.2569ZM284.144 66.2569L258.568 40.6884L232.915 66.3346L258.491 91.9031L284.144 66.2569Z" fill="#F0EDE8"/>
<path d="M323.279 66.2222L318.935 70.5657L285.845 66.2827C285.845 66.2827 285.819 66.2395 285.845 66.2395L318.987 61.9392L323.271 66.2222H323.279Z" fill="#F0EDE8"/>
<path fill-rule="evenodd" clip-rule="evenodd" d="M319.376 60.7996L324.8 66.2224L319.315 71.7057L285.698 67.3536C284.42 67.1809 284.42 65.333 285.698 65.1689L319.367 60.7996H319.376ZM294.085 66.2569L318.546 69.426L321.751 66.2224L318.607 63.0792L294.094 66.2569H294.085Z" fill="#F0EDE8"/>
<path d="M258.577 1.53687L262.921 5.88031L258.637 38.9613C258.637 38.9613 258.594 38.9872 258.594 38.9613L254.293 5.8285L258.577 1.5455V1.53687Z" fill="#F0EDE8"/>
<path fill-rule="evenodd" clip-rule="evenodd" d="M258.577 0.00878906L264.062 5.49207L259.708 39.0998C259.536 40.3778 257.687 40.3778 257.523 39.0998L253.153 5.43162L258.577 0.00878906ZM258.577 3.06561L255.433 6.20878L258.611 30.7151L261.781 6.26059L258.577 3.05697V3.06561Z" fill="#F0EDE8"/>
<path d="M193.866 66.2311L198.21 61.8877L231.3 66.1707C231.3 66.1707 231.326 66.2139 231.3 66.2139L198.158 70.5141L193.874 66.2311H193.866Z" fill="#F0EDE8"/>
<path fill-rule="evenodd" clip-rule="evenodd" d="M197.813 60.748L231.43 65.1001C232.708 65.2728 232.708 67.1207 231.43 67.2848L197.761 71.6542L192.337 66.2313L197.822 60.748H197.813ZM198.59 63.0277L195.386 66.2313L198.53 69.3745L223.043 66.1968L198.582 63.0277H198.59Z" fill="#F0EDE8"/>
<path d="M258.577 130.916L254.232 126.573L258.517 93.4917C258.517 93.4917 258.56 93.4658 258.56 93.4917L262.861 126.625L258.577 130.908V130.916Z" fill="#F0EDE8"/>
<path fill-rule="evenodd" clip-rule="evenodd" d="M258.542 101.739L255.373 126.193L258.577 129.397L261.721 126.254L258.542 101.747V101.739ZM257.446 93.354C257.618 92.076 259.467 92.076 259.631 93.354L264.001 127.022L258.577 132.445L253.092 126.962L257.446 93.354Z" fill="#F0EDE8"/>
</svg>
